<svg width="31" height="49" viewBox="0 0 31 49" fill="none" xmlns="http://www.w3.org/2000/svg">
<rect x="0.3125" y="0.3125" width="9.375" height="9.375" rx="2.1875" fill="#8B5CF6" stroke="#C4B5FD" stroke-width="0.625"/>
<path fill-rule="evenodd" clip-rule="evenodd" d="M0 10.5002V48.8812H9.99996V30.9672C10.0136 29.7675 10.2385 28.745 10.6748 27.8997C11.1247 27.0545 11.745 26.4069 12.5357 25.957C13.3401 25.4934 14.2672 25.2617 15.3169 25.2617C16.9256 25.2617 18.1731 25.7525 19.0592 26.7341C19.9454 27.7157 20.3816 29.079 20.368 30.824V48.8812H30.368V28.8608C30.3816 26.4887 29.9317 24.4164 29.0183 22.6441C28.1185 20.8718 26.8506 19.5017 25.2146 18.5337C23.5786 17.5521 21.6564 17.0613 19.4478 17.0613C17.1029 17.0613 15.1192 17.6066 13.4969 18.6973C11.8882 19.7879 10.7293 21.3012 10.0204 23.2372H9.67276V10.7084C9.32302 10.8945 8.92382 11 8.5 11H1.5C0.937197 11 0.41783 10.814 0 10.5002Z" fill="white"/>
</svg>
